PathFileType	4	(X/Y/Z)	Patient5_TMGait_0pt45_1_left_14.trc.trc
DataRate	CameraRate	NumFrames	NumMarkers	Units	OrigDataRate	OrigDataStartFrame	OrigNumFrames
62.500000000000	62.500000000000	4	32	mm	62.500000000000	36	       141
Frame#	Time	R.ASIS			L.ASIS			Chest			R.Shoulder			Neck			L.Shoulder			L.Elbow			L.Wrist			R.Elbow			R.Wrist			L.Thigh.Superior			L.Thigh.Lateral			L.Thigh.Inferior			L.Patella			L.Shank.Superior			L.Shank.Lateral			L.Shank.Inferior			L.Heel			L.Midfoot.Lateral			L.Midfoot.Superior			L.Toe			R.Thigh.Superior			R.Thigh.Lateral			R.Thigh.Inferior			R.Patella			R.Shank.Superior			R.Shank.Lateral			R.Shank.Inferior			R.Heel			R.Midfoot.Lateral			R.Midfoot.Superior			R.Toe			
		X1	Y1	Z1	X2	Y2	Z2	X3	Y3	Z3	X4	Y4	Z4	X5	Y5	Z5	X6	Y6	Z6	X7	Y7	Z7	X8	Y8	Z8	X9	Y9	Z9	X10	Y10	Z10	X11	Y11	Z11	X12	Y12	Z12	X13	Y13	Z13	X14	Y14	Z14	X15	Y15	Z15	X16	Y16	Z16	X17	Y17	Z17	X18	Y18	Z18	X19	Y19	Z19	X20	Y20	Z20	X21	Y21	Z21	X22	Y22	Z22	X23	Y23	Z23	X24	Y24	Z24	X25	Y25	Z25	X26	Y26	Z26	X27	Y27	Z27	X28	Y28	Z28	X29	Y29	Z29	X30	Y30	Z30	X31	Y31	Z31	X32	Y32	Z32	

36	22.520000000000	1019.949237258489	971.396775069118	574.077326473297	1057.582501183497	953.265989294825	340.760098581518	1144.112600281290	1422.176814121437	473.660912167134	1025.885257843607	1489.367119413183	625.753699915617	1027.551551894478	1551.195841285352	439.917247866255	1114.949577168257	1493.263031446078	270.569258657468	1039.286587755475	1180.344121427604	131.707647101949	1127.101081930780	907.190561528008	177.243665320013	921.012692506469	1173.531547045733	757.676558557578	1145.893234225934	993.521024038421	718.508626584868	1113.257678611406	756.483226028971	336.744018365963	1064.266969204538	671.899058935045	288.791914285141	1137.062141290716	634.337402737872	368.664831881116	1162.264010153757	520.014821846935	382.505600884542	1125.896052334508	409.314219404612	393.931693107663	1085.756552071694	334.438751059956	304.259322952518	1105.769065366971	282.853481978168	395.076734457426	995.680182142314	50.364285857239	377.165517025423	1088.299686993522	28.104687596830	322.447345496533	1181.734382935424	89.454085456412	375.265678986738	1289.940753480902	44.707234626483	383.122578457973	996.410321597958	735.177055512627	602.175802447156	889.516835742697	676.323350447710	645.694428411957	968.689781704085	604.767197817270	588.553910008503	942.553297281674	504.925037004094	619.105855862379	863.037034134117	418.360395998427	574.268716195356	761.656106646606	388.066145677263	645.343628594113	789.910676872094	298.813709549898	570.434290255338	584.328187728182	135.230019031081	527.037563216988	643.899354471878	73.195495867151	597.518119515218	765.403399479371	98.119006682299	586.118523213820	845.533484295392	41.871504167721	579.800726137321	
37	22.536000000000	1021.424911722071	974.878818323930	570.272438691022	1060.735494932790	954.461861654238	338.143350150032	1147.022956498883	1423.613959800943	472.203802506834	1027.046090039767	1491.308480761539	622.529206240283	1031.454159323006	1553.102473689016	436.739035276608	1121.615736813273	1495.008913583920	268.952553304773	1048.316142017248	1182.358110851822	128.376389898516	1136.037559710375	909.536876964165	175.608455967151	920.201455330976	1175.663628588771	753.271560959398	1144.791906643268	995.095142167754	715.104330698888	1114.158862611747	756.278840159671	335.052720484417	1063.952716904133	672.072167865222	286.303758632638	1135.572551336967	633.586608789098	366.708327951064	1159.141186518840	519.128145843727	380.781447653955	1121.845609498600	408.939125010410	392.467556515801	1081.359121098389	334.026579122973	303.046496333325	1100.523188008123	282.744278216422	394.090762439675	988.805869541128	50.370095720703	376.967700179681	1081.434894579660	28.110105078914	322.317592266923	1174.753674227014	89.516646176239	375.169144313915	1283.041055268168	44.816867696874	383.029870113589	1003.095545072096	738.744309689439	602.792588832759	898.193563191009	677.948947697091	646.707448840816	979.783124383929	607.333702429845	591.419136105572	954.780518740810	506.279615933552	622.713798403342	872.693794398561	419.825092198035	577.451463843696	770.320075338475	392.123722487657	648.673709861723	795.547953346884	302.600681101975	573.029269398438	585.000668702923	148.794525355791	529.118275353884	641.208474401255	82.662287035238	598.645387221807	763.927310619556	101.571391419821	587.872694085220	840.658959814833	41.562819266639	580.481390781062	
38	22.552000000000	1022.728064745719	978.115901127961	566.772642858005	1063.552514741862	955.526396238996	335.553620249174	1149.522929931392	1424.800208766153	470.802314048218	1027.867212544556	1492.998686768345	619.350704865570	1034.996730713337	1554.767584385856	433.691216557609	1127.866489784781	1496.504394255811	267.485087610782	1057.388579029674	1184.112086592307	125.100171220866	1144.868078630356	911.570671595497	173.964947445863	919.490552544008	1177.481413533809	749.070606803806	1143.683065568413	996.284026652162	711.752728078903	1114.595254684359	756.122354737238	333.549366350941	1063.357931009989	672.294254763722	283.850887513773	1133.772770120862	632.836105615966	364.758016255387	1155.684381327980	518.241911204004	378.911500581513	1117.534167370837	408.551206697829	390.871381785123	1076.653943049067	333.597183754117	301.714556789139	1095.106941264655	282.617756649542	392.997950254802	981.827628719002	50.418705575004	376.751982991255	1074.470909497939	28.066375591811	322.184062696510	1167.720118581079	89.474139969170	375.054510991947	1276.041546401182	44.815506214372	383.001673797473	1009.718917605887	742.459921320276	603.771516741084	907.054155450670	679.608023260250	648.016464020752	991.035994932014	610.120408188666	594.470901815551	967.276069015580	507.891770561889	626.459644913832	882.962676474464	421.633055106110	580.839643149993	779.669684112886	396.465324430105	652.313529705727	801.861069693459	306.807524337938	575.795687097196	586.989909927281	163.236776827883	531.515629194959	639.368068800204	93.078833031823	600.004276004344	763.011962274185	105.654606039569	589.773966203311	836.035182245892	41.087139642473	581.328624617478	
39	22.568000000000	1023.886923472129	981.059521907282	563.667794457550	1066.096252051178	956.470220466141	332.961849743858	1151.613433905428	1425.786102238042	469.444258311357	1028.366451349117	1494.471892097589	616.255220640657	1038.156656826315	1556.227623546311	430.801226195221	1133.592585326091	1497.796134861715	266.150882577756	1066.358552135692	1185.636392977608	121.934813498832	1153.560250401018	913.337950693189	172.288548829352	918.734147817852	1178.999850062534	744.987384019874	1142.521271451853	997.172989416414	708.553845376009	1114.627389016862	755.967242831554	332.073480036665	1062.475396012778	672.529670008746	281.460003826423	1131.750902705831	632.101900759903	362.803015221030	1152.007046824763	517.381910781997	376.984711330920	1113.055810370266	408.165466159043	389.241137544495	1071.732769372771	333.177733551921	300.351345150119	1089.574362153297	282.483579509357	391.875733774248	974.748979223408	50.492714855767	376.534495086991	1067.402895107222	27.997267453303	322.046424386194	1160.630584618672	89.355152805383	374.921443757582	1268.953038316450	44.706767726970	382.986088790894	1016.159553501420	746.357495621047	605.013421871386	915.870840624959	681.422332244274	649.512570499011	1002.145038317424	613.187728532316	597.539143286158	979.730628056785	509.870721196986	630.213899376574	893.561184011812	423.842520567593	584.308951740963	789.440244451353	401.111845587679	656.143161234674	808.683347010416	311.427731719292	578.658210070223	590.278509975303	178.356826002044	534.212749018041	638.363560944925	104.298745817722	601.572167721132	762.614000054705	110.255512917344	591.789863569860	831.512183313883	40.417856929776	582.267666334742	
